<svg width="0" height="0" class="hidden">
  <symbol fill="none" xmlns="http://www.w3.org/2000/svg" viewBox="0 0 24 24" id="computer-svgrepo-com">
    <path fill-rule="evenodd" clip-rule="evenodd" d="M2 6C2 4.34315 3.34315 3 5 3H19C20.6569 3 22 4.34315 22 6V15C22 16.6569 20.6569 18 19 18H13V19H15C15.5523 19 16 19.4477 16 20C16 20.5523 15.5523 21 15 21H9C8.44772 21 8 20.5523 8 20C8 19.4477 8.44772 19 9 19H11V18H5C3.34315 18 2 16.6569 2 15V6ZM5 5C4.44772 5 4 5.44772 4 6V15C4 15.5523 4.44772 16 5 16H19C19.5523 16 20 15.5523 20 15V6C20 5.44772 19.5523 5 19 5H5Z" fill="#000000"></path>
  </symbol>
  <symbol xmlns="http://www.w3.org/2000/svg" viewBox="0 0 266.895 266.895" id="facebook-icon-logo-svgrepo-com">
    <path d="M252.164 266.895c8.134 0 14.729-6.596 14.729-14.73V14.73c0-8.137-6.596-14.73-14.729-14.73H14.73C6.593 0 0 6.594 0 14.73v237.434c0 8.135 6.593 14.73 14.73 14.73h237.434z" fill="#485a96"></path>
    <path d="M184.152 266.895V163.539h34.692l5.194-40.28h-39.887V97.542c0-11.662 3.238-19.609 19.962-19.609l21.329-.01V41.897c-3.689-.49-16.351-1.587-31.08-1.587-30.753 0-51.807 18.771-51.807 53.244v29.705h-34.781v40.28h34.781v103.355h41.597z" fill="#ffffff"></path>
  </symbol>
  <symbol id="growth-report-graph-svgrepo-com" version="1.1" xmlns="http://www.w3.org/2000/svg" xmlnsCc="http://creativecommons.org/ns#" xmlnsDc="http://purl.org/dc/elements/1.1/" xmlnsInkscape="http://www.inkscape.org/namespaces/inkscape" xmlnsRdf="http://www.w3.org/1999/02/22-rdf-syntax-ns#" xmlnsSodipodi="http://sodipodi.sourceforge.net/DTD/sodipodi-0.dtd" xmlnsSvg="http://www.w3.org/2000/svg" viewBox="0 0 6.3500002 6.3500002">
    <defs id="defs1970"></defs>
    <g id="layer1">
      <path d="m 0.26485,5.8204456 a 0.2645835,0.2645835 0 0 0 -0.26563,0.26563 0.2645835,0.2645835 0 0 0 0.26563,0.26367 h 5.82031 a 0.2645835,0.2645835 0 0 0 0.26562,-0.26367 0.2645835,0.2645835 0 0 0 -0.26562,-0.26563 z" id="path726"></path>
      <path d="m 1.16328,3.9688856 c -0.34722,0 -0.63476,0.28754 -0.63476,0.63477 v 1.48242 a 0.26460996,0.26460996 0 0 0 0.26562,0.26367 h 1.0586 a 0.26460996,0.26460996 0 0 0 0.26367,-0.26367 v -1.48242 c 0,-0.34723 -0.28755,-0.63477 -0.63477,-0.63477 z" id="path728"></path>
      <path d="m 3.0168,3.0684956 c -0.34722,0 -0.63477,0.28753 -0.63477,0.63477 v 2.38281 a 0.26460996,0.26460996 0 0 0 0.26367,0.26367 h 1.0586 a 0.26460996,0.26460996 0 0 0 0.26367,-0.26367 v -2.38281 c 0,-0.34724 -0.28755,-0.63477 -0.63477,-0.63477 z" id="path730"></path>
      <path d="m 4.86836,2.2755256 c -0.34722,0 -0.63477,0.28754 -0.63477,0.63477 v 3.17578 a 0.26460996,0.26460996 0 0 0 0.26368,0.26367 h 1.05859 a 0.26460996,0.26460996 0 0 0 0.26563,-0.26367 v -3.17578 c 0,-0.34723 -0.2895,-0.63477 -0.63672,-0.63477 z" id="path732"></path>
      <path d="M 4.6205208,2.5237e-4 A 0.2645835,0.2645835 0 0 0 4.3564534,0.26380219 0.2645835,0.2645835 0 0 0 4.6205208,0.52941905 H 4.8938883 C 3.3974791,1.8159538 1.8306324,2.6151331 0.2161369,2.9142865 A 0.2645835,0.2645835 0 0 0 0.0052984,3.2227949 0.2645835,0.2645835 0 0 0 0.3117388,3.4357016 C 2.050091,3.1136013 3.722697,2.2498105 5.2923138,0.88753671 V 1.1991456 A 0.2645835,0.2645835 0 0 0 5.5558626,1.4647625 0.2645835,0.2645835 0 0 0 5.8214805,1.1991456 V 0.41986501 C 5.8215308,0.19150501 5.62816,2.0237e-4 5.3998008,2.5237e-4 Z" id="path734"></path>
    </g>
  </symbol>
  <symbol fill="none" xmlns="http://www.w3.org/2000/svg" viewBox="0 0 24 24" id="instagram-svgrepo-com">
    <path fill-rule="evenodd" clip-rule="evenodd" d="M12 18C15.3137 18 18 15.3137 18 12C18 8.68629 15.3137 6 12 6C8.68629 6 6 8.68629 6 12C6 15.3137 8.68629 18 12 18ZM12 16C14.2091 16 16 14.2091 16 12C16 9.79086 14.2091 8 12 8C9.79086 8 8 9.79086 8 12C8 14.2091 9.79086 16 12 16Z" fill="#0F0F0F"></path>
    <path d="M18 5C17.4477 5 17 5.44772 17 6C17 6.55228 17.4477 7 18 7C18.5523 7 19 6.55228 19 6C19 5.44772 18.5523 5 18 5Z" fill="#0F0F0F"></path>
    <path fill-rule="evenodd" clip-rule="evenodd" d="M1.65396 4.27606C1 5.55953 1 7.23969 1 10.6V13.4C1 16.7603 1 18.4405 1.65396 19.7239C2.2292 20.8529 3.14708 21.7708 4.27606 22.346C5.55953 23 7.23969 23 10.6 23H13.4C16.7603 23 18.4405 23 19.7239 22.346C20.8529 21.7708 21.7708 20.8529 22.346 19.7239C23 18.4405 23 16.7603 23 13.4V10.6C23 7.23969 23 5.55953 22.346 4.27606C21.7708 3.14708 20.8529 2.2292 19.7239 1.65396C18.4405 1 16.7603 1 13.4 1H10.6C7.23969 1 5.55953 1 4.27606 1.65396C3.14708 2.2292 2.2292 3.14708 1.65396 4.27606ZM13.4 3H10.6C8.88684 3 7.72225 3.00156 6.82208 3.0751C5.94524 3.14674 5.49684 3.27659 5.18404 3.43597C4.43139 3.81947 3.81947 4.43139 3.43597 5.18404C3.27659 5.49684 3.14674 5.94524 3.0751 6.82208C3.00156 7.72225 3 8.88684 3 10.6V13.4C3 15.1132 3.00156 16.2777 3.0751 17.1779C3.14674 18.0548 3.27659 18.5032 3.43597 18.816C3.81947 19.5686 4.43139 20.1805 5.18404 20.564C5.49684 20.7234 5.94524 20.8533 6.82208 20.9249C7.72225 20.9984 8.88684 21 10.6 21H13.4C15.1132 21 16.2777 20.9984 17.1779 20.9249C18.0548 20.8533 18.5032 20.7234 18.816 20.564C19.5686 20.1805 20.1805 19.5686 20.564 18.816C20.7234 18.5032 20.8533 18.0548 20.9249 17.1779C20.9984 16.2777 21 15.1132 21 13.4V10.6C21 8.88684 20.9984 7.72225 20.9249 6.82208C20.8533 5.94524 20.7234 5.49684 20.564 5.18404C20.1805 4.43139 19.5686 3.81947 18.816 3.43597C18.5032 3.27659 18.0548 3.14674 17.1779 3.0751C16.2777 3.00156 15.1132 3 13.4 3Z" fill="#0F0F0F"></path>
  </symbol>
  <symbol fill="none" xmlns="http://www.w3.org/2000/svg" viewBox="0 0 24 24" id="menu-alt-svgrepo-com">
    <path d="M4 6H20M7 12H17M9 18H15" stroke="#000000" stroke-width="2" stroke-linecap="round" stroke-linejoin="round"></path>
  </symbol>
  <symbol version="1.1" id="snapchat-snap-chat-svgrepo-com" xmlns="http://www.w3.org/2000/svg" xmlns:xlink="http://www.w3.org/1999/xlink" xml:space="preserve" viewBox="0 0 32 32">
    <path d="M23,0H9C4,0,0,4,0,9v14c0,5,4,9,9,9h14c5,0,9-4,9-9V9C32,4,28,0,23,0z"></path>
    <g>
      <path d="M16.1,28.5c-0.7,0-1.4-0.1-2.1-0.3c-0.8-0.3-1.6-0.7-2.2-1.1c-0.7-0.4-1.5-0.6-2.4-0.6l-0.1,0
		c-0.2,0-0.4,0-0.7-0.1l-0.2,0c-0.7-0.1-1.6-0.4-1.8-1.6c-0.1,0-0.2-0.1-0.3-0.1l-0.5-0.2c-0.4-0.2-0.8-0.3-1.2-0.5
		c-1-0.5-1.1-1.3-1.1-1.6c0-0.3,0.1-1.1,1.1-1.7c1.2-0.6,2-1.3,2.6-2c0.5-0.5,0.8-1.1,1-1.7c-0.2-0.1-0.3-0.2-0.4-0.3
		c-0.3-0.2-0.5-0.4-0.8-0.5c-0.3-0.2-0.5-0.4-0.8-0.7c-0.7-0.7-0.8-1.6-0.4-2.5c0.4-0.8,1.1-1.3,2-1.3c0.1,0,0.2,0,0.3,0
		c0.2,0,0.4,0.1,0.6,0.1c0-0.7,0-1.4,0.1-2.1c0.2-2.5,1.6-4.4,3.9-5.5C14,3.6,14.7,3.5,16,3.5c2.3,0,4.2,0.8,5.7,2.4
		c1,1,1.5,2.3,1.7,3.7c0.1,0.7,0.1,1.4,0.1,2.2c0.2,0,0.5-0.1,0.7-0.1c0,0,0,0,0,0c1,0,1.8,0.6,2.1,1.4c0.3,0.9,0.1,1.9-0.6,2.5
		c-0.4,0.3-0.7,0.6-1.1,0.9l-0.3,0.2c-0.1,0.1-0.3,0.2-0.4,0.3c0,0-0.1,0-0.1,0.1c0.4,1,1,1.9,2,2.6c0.3,0.2,0.7,0.5,1.1,0.7
		c0.2,0.1,0.5,0.3,0.7,0.4c1,0.6,1,1.4,0.9,1.8c-0.1,0.6-0.6,1.2-1.2,1.5c-0.6,0.2-1.2,0.5-1.8,0.7c-0.2,0.9-0.9,1.6-1.9,1.6l-0.1,0
		c-0.2,0-0.4,0.1-0.7,0.1l-0.2,0c-1,0-1.9,0.3-2.7,0.9C18.7,28.1,17.4,28.5,16.1,28.5z"></path>
      <path d="M16,4C16,4,16,4,16,4c2.2,0,3.9,0.8,5.3,2.2c0.9,1,1.4,2.1,1.6,3.5c0.1,0.9,0.1,1.8,0.1,2.8c0.1,0,0.1,0,0.2-0.1
		c0.4-0.1,0.7-0.2,1.1-0.2c0,0,0,0,0.1,0c0.7,0,1.3,0.4,1.5,1.1c0.3,0.7,0.1,1.5-0.5,1.9c-0.4,0.3-0.7,0.6-1.1,0.8L24,16.3
		c-0.1,0.1-0.2,0.2-0.4,0.3c-0.1,0.1-0.2,0.1-0.3,0.2c0,0-0.1,0.1-0.1,0.1c0,0,0,0.1,0,0.1c0.4,1.2,1.1,2.2,2.2,3
		c0.3,0.3,0.7,0.5,1.1,0.7c0.2,0.1,0.5,0.3,0.7,0.4c0.7,0.4,0.8,0.9,0.7,1.3c-0.1,0.5-0.4,0.9-0.9,1.1c-0.7,0.3-1.4,0.6-2.1,0.8
		c-0.1,0.9-0.7,1.5-1.5,1.5c-0.1,0-0.1,0-0.2,0c-0.2,0-0.4,0.1-0.6,0.1c0,0,0,0,0,0c0,0-0.1,0-0.1,0c-1.1,0-2.1,0.3-3,0.9
		c-1.1,0.7-2.3,1.1-3.5,1.1c-0.6,0-1.3-0.1-2-0.3c-0.8-0.2-1.5-0.7-2.1-1c-0.8-0.5-1.6-0.7-2.6-0.7c0,0-0.1,0-0.1,0
		c-0.2,0-0.4,0-0.6,0l-0.2,0c-0.8-0.1-1.3-0.4-1.5-1.5c-0.1,0-0.1,0-0.2-0.1c-0.1,0-0.3-0.1-0.4-0.1L6,24c-0.4-0.1-0.8-0.3-1.1-0.5
		C4.1,23.2,4,22.6,4,22.3c0-0.3,0.1-0.8,0.8-1.2c1.2-0.7,2.1-1.3,2.8-2.1c0.6-0.7,1-1.4,1.2-2.1c0,0,0,0,0,0
		c-0.3-0.2-0.5-0.4-0.8-0.5c-0.3-0.2-0.5-0.3-0.7-0.5c-0.2-0.2-0.5-0.4-0.7-0.7c-0.5-0.5-0.6-1.3-0.3-1.9c0.3-0.6,0.9-1,1.5-1
		c0.1,0,0.2,0,0.2,0c0.4,0.1,0.8,0.2,1.1,0.3c0,0,0,0,0,0c0-0.9,0-1.8,0-2.7c0.2-2.3,1.5-4.1,3.6-5.1C14.1,4.1,14.7,4,16,4
		C16,4,16,4,16,4 M16,3L16,3l-0.1,0c-1.3,0-2.1,0.1-3.5,0.8C9.9,5,8.4,7.1,8.2,9.7c0,0.5-0.1,1-0.1,1.5c-0.1,0-0.2,0-0.4,0
		c-1,0-1.9,0.6-2.4,1.6c-0.5,1-0.3,2.2,0.5,3.1c0.3,0.3,0.6,0.6,0.9,0.8C7,16.8,7.2,17,7.5,17.2c0,0,0.1,0.1,0.1,0.1
		c-0.2,0.4-0.5,0.8-0.8,1.2c-0.6,0.7-1.4,1.3-2.5,1.9C3.1,20.9,3,21.9,3,22.4c0,0.9,0.5,1.6,1.4,2c0.4,0.2,0.9,0.4,1.2,0.5l0.5,0.2
		c0,0,0.1,0,0.1,0c0.5,1.4,1.7,1.7,2.2,1.7l0.2,0C8.8,26.9,9,27,9.3,27l0.1,0c0.8,0,1.5,0.2,2.1,0.6c0.6,0.4,1.4,0.9,2.3,1.1
		c0.8,0.2,1.5,0.3,2.3,0.3c1.4,0,2.8-0.4,4.1-1.3c0.8-0.5,1.6-0.8,2.5-0.8l0.1,0l0,0l0,0c0.3,0,0.5,0,0.7-0.1c0.1,0,0.1,0,0.1,0
		c1.1-0.1,1.9-0.8,2.3-1.7c0.6-0.2,1.1-0.4,1.6-0.6c0.8-0.3,1.4-1.1,1.5-1.9c0.1-0.4,0.1-1.5-1.2-2.3c-0.2-0.2-0.5-0.3-0.7-0.4
		c-0.4-0.2-0.7-0.4-1-0.7c-0.8-0.6-1.3-1.3-1.7-2c0.1,0,0.1-0.1,0.2-0.1l0.3-0.2c0.4-0.3,0.8-0.6,1.1-0.9c0.9-0.7,1.2-1.9,0.8-3
		c-0.4-1.1-1.4-1.8-2.5-1.8l-0.1,0c-0.1,0-0.1,0-0.2,0c0-0.6-0.1-1.1-0.1-1.7c-0.2-1.5-0.8-2.9-1.8-4C20.5,3.9,18.5,3,16,3L16,3
		L16,3z"></path>
    </g>
  </symbol>
  <symbol fill="none" xmlns="http://www.w3.org/2000/svg" viewBox="0 0 24 24" id="upload-minimalistic-svgrepo-com">
    <path d="M3 15C3 17.8284 3 19.2426 3.87868 20.1213C4.75736 21 6.17157 21 9 21H15C17.8284 21 19.2426 21 20.1213 20.1213C21 19.2426 21 17.8284 21 15" stroke="#1C274C" stroke-width="1.5" stroke-linecap="round" stroke-linejoin="round"></path>
    <path d="M12 16V3M12 3L16 7.375M12 3L8 7.375" stroke="#1C274C" stroke-width="1.5" stroke-linecap="round" stroke-linejoin="round"></path>
  </symbol>
  <symbol fill="#000000" id="working-home-from-new-normal-social-distancing-office-svgrepo-com" xmlns="http://www.w3.org/2000/svg" viewBox="0 0 512 512">
    <path d="M468.46,222.89a30.24,30.24,0,0,0-11.57-20.75l-41.61-32.41v-94a4.52,4.52,0,0,0-4.53-4.53H346a4.53,4.53,0,0,0-4.53,4.53v36.47L266,53.43a16.21,16.21,0,0,0-19.93,0L55.12,202.08a30.47,30.47,0,0,0-4.74,43.5L57.32,254A30.6,30.6,0,0,0,98.88,259l0,198.41a4.54,4.54,0,0,0,4.54,4.54l305.16,0a4.53,4.53,0,0,0,4.54-4.53l0-198.41A30.61,30.61,0,0,0,454.67,254l6.95-8.37A30.2,30.2,0,0,0,468.46,222.89Zm-360.54,230,0-201.11L251.62,136.62a7,7,0,0,1,8.79,0L404.05,251.83l0,201.1Zm346.72-213-6.94,8.37a21.52,21.52,0,0,1-29.88,3l-6.33-5.08a.18.18,0,0,0-.07,0L266.08,129.55a16,16,0,0,0-20.14,0L94.17,251.21a21.51,21.51,0,0,1-29.87-3l-6.95-8.38a21.4,21.4,0,0,1,3.33-30.55L251.62,60.58a7.16,7.16,0,0,1,8.8,0L343.17,125a4.53,4.53,0,0,0,7.32-3.58V80.26h55.74v91.67a4.54,4.54,0,0,0,1.74,3.58l43.36,33.77a21.4,21.4,0,0,1,3.32,30.56Z"></path>
    <path d="M272.39,258.67a33.37,33.37,0,1,0-32.79,0L207.89,406.1a4.53,4.53,0,0,0,2.07,4.83l43.65,26.68a4.55,4.55,0,0,0,4.72,0L302,410.94a4.53,4.53,0,0,0,2.06-4.82Zm-40.7-29.05A24.31,24.31,0,1,1,256,253.92,24.33,24.33,0,0,1,231.69,229.62ZM256,428.43l-38.54-23.56,30.72-142.82a33.21,33.21,0,0,0,15.69,0l30.69,142.83Z"></path>
  </symbol>
  <symbol fill="none" xmlns="http://www.w3.org/2000/svg" viewBox="0 0 24 24" id="clock-two-svgrepo-com">
    <path d="M12 7V12L14.5 10.5M21 12C21 16.9706 16.9706 21 12 21C7.02944 21 3 16.9706 3 12C3 7.02944 7.02944 3 12 3C16.9706 3 21 7.02944 21 12Z" stroke="#000000" stroke-width="2" stroke-linecap="round" stroke-linejoin="round"></path>
  </symbol>
</svg>